<svg width="53" height="53" viewBox="0 0 53 53" fill="none" xmlns="http://www.w3.org/2000/svg">
<circle cx="26.25" cy="26.25" r="22.75" fill="#0378CC"/>
<ellipse cx="11.2223" cy="16.4975" rx="3.03563" ry="4.71046" transform="rotate(29.9367 11.2223 16.4975)" fill="white" fill-opacity="0.3"/>
<path fill-rule="evenodd" clip-rule="evenodd" d="M17.3277 24.4157C16.2576 25.0823 15.6261 26.0998 15.6261 27.3277C15.6261 29.731 17.5908 31.3098 20.4677 31.3098C23.292 31.3098 25.2743 29.7135 25.2743 27.3277C25.2743 26.0998 24.6428 25.0823 23.6078 24.4333C24.327 23.8544 24.7656 23.0475 24.7656 22.1002C24.7656 19.9776 22.9587 18.504 20.4677 18.504C17.9592 18.504 16.1874 19.9776 16.1874 22.1002C16.1874 23.0475 16.6085 23.8544 17.3277 24.4157ZM20.4677 23.486C19.345 23.486 18.6258 22.9247 18.6258 22.0826C18.6258 21.1529 19.3626 20.574 20.4677 20.574C21.5729 20.574 22.3272 21.1704 22.3272 22.0826C22.3272 22.9247 21.5904 23.486 20.4677 23.486ZM20.4677 29.0995C19.0994 29.0995 18.2223 28.3978 18.2223 27.3102C18.2223 26.2577 19.1345 25.5384 20.4677 25.5384C21.7834 25.5384 22.6781 26.2577 22.6781 27.3102C22.6781 28.3978 21.8009 29.0995 20.4677 29.0995Z" fill="black"/>
<path fill-rule="evenodd" clip-rule="evenodd" d="M28.48 24.4157C27.4099 25.0823 26.7784 26.0998 26.7784 27.3277C26.7784 29.731 28.7431 31.3098 31.62 31.3098C34.4443 31.3098 36.4266 29.7135 36.4266 27.3277C36.4266 26.0998 35.7951 25.0823 34.7601 24.4333C35.4793 23.8544 35.9179 23.0475 35.9179 22.1002C35.9179 19.9776 34.111 18.504 31.62 18.504C29.1115 18.504 27.3397 19.9776 27.3397 22.1002C27.3397 23.0475 27.7608 23.8544 28.48 24.4157ZM31.62 23.486C30.4973 23.486 29.7781 22.9247 29.7781 22.0826C29.7781 21.1529 30.5149 20.574 31.62 20.574C32.7252 20.574 33.4795 21.1704 33.4795 22.0826C33.4795 22.9247 32.7427 23.486 31.62 23.486ZM31.62 29.0995C30.2517 29.0995 29.3746 28.3978 29.3746 27.3102C29.3746 26.2577 30.2868 25.5384 31.62 25.5384C32.9357 25.5384 33.8303 26.2577 33.8303 27.3102C33.8303 28.3978 32.9532 29.0995 31.62 29.0995Z" fill="black"/>
<path d="M25.9815 35.8022H27.4013L28.0372 35.435V34.07L27.5603 33.7959V33.7849L28.0372 33.5108V32.2774L27.4013 31.9101H25.9815L25.3456 32.2774V33.0613H26.113V32.5679H27.2697V33.4615H26.3104V34.1193H27.2697V35.1444H26.113V34.651H25.3456V35.435L25.9815 35.8022Z" fill="black"/>
</svg>
