<svg width="48" height="48" viewBox="0 0 48 48" fill="none" xmlns="http://www.w3.org/2000/svg">
<g opacity="0.6">
<path d="M24 2.86102e-06C20.8483 2.86102e-06 17.7274 0.62078 14.8156 1.8269C11.9038 3.03301 9.25804 4.80083 7.02944 7.02944C4.80083 9.25805 3.03301 11.9038 1.82689 14.8156C0.62078 17.7274 2.86102e-06 20.8483 2.86102e-06 24L24 24V2.86102e-06Z" fill="#1EB5F0"/>
<path d="M24 48C27.1517 48 30.2726 47.3792 33.1844 46.1731C36.0962 44.967 38.742 43.1992 40.9706 40.9706C43.1992 38.7419 44.967 36.0962 46.1731 33.1844C47.3792 30.2726 48 27.1517 48 24L24 24L24 48Z" fill="#1EB5F0"/>
</g>
</svg>
