<svg width="56" height="56" viewBox="0 0 56 56" fill="none" xmlns="http://www.w3.org/2000/svg">
<path d="M0 28C0 31.677 0.724243 35.318 2.13137 38.7151C3.53851 42.1123 5.60097 45.199 8.20101 47.799C10.8011 50.399 13.8877 52.4615 17.2849 53.8686C20.682 55.2758 24.323 56 28 56L28 28H0Z" fill="#1EB5F0"/>
<path d="M56 28C56 24.323 55.2758 20.682 53.8686 17.2849C52.4615 13.8877 50.399 10.801 47.799 8.201C45.1989 5.60096 42.1122 3.5385 38.7151 2.13137C35.318 0.724235 31.677 -3.55051e-06 28 0L28 28L56 28Z" fill="#1EB5F0"/>
</svg>
