<svg width="48" height="48" viewBox="0 0 48 48" fill="none" xmlns="http://www.w3.org/2000/svg">
<g opacity="0.6">
<path d="M0 24C0 27.1517 0.620777 30.2726 1.82689 33.1844C3.033 36.0962 4.80083 38.742 7.02944 40.9706C9.25805 43.1992 11.9038 44.967 14.8156 46.1731C17.7274 47.3792 20.8483 48 24 48L24 24H0Z" fill="#1EB5F0"/>
<path d="M48 24C48 20.8483 47.3792 17.7274 46.1731 14.8156C44.967 11.9038 43.1992 9.25803 40.9706 7.02943C38.7419 4.80082 36.0962 3.033 33.1844 1.82688C30.2726 0.620773 27.1517 -3.04329e-06 24 0L24 24L48 24Z" fill="#1EB5F0"/>
</g>
</svg>
