<svg width="48" height="48" viewBox="0 0 48 48" fill="none" xmlns="http://www.w3.org/2000/svg">
<g opacity="0.6">
<path d="M40.9706 7.02945C38.742 4.80084 36.0962 3.03301 33.1844 1.8269C30.2726 0.62079 27.1517 1.03582e-05 24 1.30556e-05C20.8483 1.30556e-05 17.7274 0.620792 14.8156 1.8269C11.9038 3.03302 9.25804 4.80084 7.02944 7.02945L24 24L40.9706 7.02945Z" fill="#1EB5F0"/>
<path d="M7.02944 40.9706C9.25805 43.1992 11.9038 44.967 14.8156 46.1731C17.7274 47.3792 20.8483 48 24 48C27.1517 48 30.2726 47.3792 33.1844 46.1731C36.0962 44.967 38.742 43.1992 40.9706 40.9706L24 24L7.02944 40.9706Z" fill="#1EB5F0"/>
</g>
</svg>
