<svg width="56" height="56" viewBox="0 0 56 56" fill="none" xmlns="http://www.w3.org/2000/svg">
<path d="M28 3.33786e-06C24.323 3.33786e-06 20.682 0.724246 17.2849 2.13138C13.8878 3.53851 10.8011 5.60097 8.20101 8.20101C5.60097 10.8011 3.53851 13.8878 2.13138 17.2849C0.724243 20.682 3.33786e-06 24.323 3.33786e-06 28L28 28V3.33786e-06Z" fill="#1EB5F0"/>
<path d="M28 56C31.677 56 35.318 55.2758 38.7151 53.8686C42.1123 52.4615 45.199 50.399 47.799 47.799C50.399 45.1989 52.4615 42.1122 53.8686 38.7151C55.2758 35.318 56 31.677 56 28L28 28L28 56Z" fill="#1EB5F0"/>
</svg>
