<svg width="48" height="48" viewBox="0 0 48 48" fill="none" xmlns="http://www.w3.org/2000/svg">
<g opacity="0.6">
<path d="M7.03003 7.02944C4.80142 9.25805 3.03359 11.9038 1.82748 14.8156C0.621369 17.7274 0.000590192 20.8483 0.00059289 24C0.00059289 27.1517 0.621372 30.2726 1.82748 33.1844C3.0336 36.0962 4.80142 38.742 7.03003 40.9706L24.0006 24L7.03003 7.02944Z" fill="#1EB5F0"/>
<path d="M40.9712 40.9706C43.1998 38.742 44.9676 36.0962 46.1737 33.1844C47.3798 30.2726 48.0006 27.1517 48.0006 24C48.0006 20.8483 47.3798 17.7274 46.1737 14.8156C44.9676 11.9038 43.1997 9.25803 40.9711 7.02942L24.0006 24L40.9712 40.9706Z" fill="#1EB5F0"/>
</g>
</svg>
