<svg width="56" height="56" viewBox="0 0 56 56" fill="none" xmlns="http://www.w3.org/2000/svg">
<path d="M8.20136 8.20101C5.60132 10.8011 3.53886 13.8878 2.13173 17.2849C0.724597 20.682 0.000354213 24.323 0.000354213 28C0.000354213 31.677 0.724597 35.318 2.13173 38.7151C3.53886 42.1123 5.60132 45.1989 8.20137 47.799L28.0004 28L8.20136 8.20101Z" fill="#1EB5F0"/>
<path d="M47.7993 47.799C50.3994 45.1989 52.4618 42.1122 53.869 38.7151C55.2761 35.318 56.0004 31.677 56.0003 28C56.0003 24.323 55.2761 20.682 53.869 17.2848C52.4618 13.8877 50.3994 10.801 47.7993 8.20099L28.0004 28L47.7993 47.799Z" fill="#1EB5F0"/>
</svg>
