<svg width="56" height="56" viewBox="0 0 56 56" fill="none" xmlns="http://www.w3.org/2000/svg">
<path d="M47.799 8.201C45.1989 5.60096 42.1122 3.53849 38.7151 2.13136C35.318 0.724231 31.677 -1.1998e-05 28 -1.1998e-05C24.323 -1.1998e-05 20.682 0.724231 17.2849 2.13136C13.8877 3.53849 10.8011 5.60096 8.20101 8.201L28 28L47.799 8.201Z" fill="#1EB5F0"/>
<path d="M8.20101 47.799C10.8011 50.399 13.8878 52.4615 17.2849 53.8686C20.682 55.2757 24.323 56 28 56C31.677 56 35.318 55.2757 38.7152 53.8686C42.1123 52.4615 45.199 50.399 47.799 47.799L28 28L8.20101 47.799Z" fill="#1EB5F0"/>
</svg>
