<svg width="20" height="64" viewBox="0 0 20 64" fill="none" xmlns="http://www.w3.org/2000/svg">
<path d="M4.76 12.98C4.76 9.06 6.42 5.7 10.3 5.7C14.14 5.7 15.8 9.06 15.8 12.98C15.8 16.92 14.22 20.3 10.3 20.3C6.38 20.3 4.76 16.92 4.76 12.98ZM7.26 12.98C7.26 16.24 8.4 17.9 10.3 17.9C12.2 17.9 13.3 16.26 13.3 12.98C13.3 9.76 12.14 8.1 10.3 8.1C8.42 8.1 7.26 9.76 7.26 12.98Z" fill="white"/>
<path d="M3.39435 44.5L16.6057 44.5L19.4205 63.5L0.579532 63.5L3.39435 44.5Z" fill="#2B2B2B" stroke="white"/>
<path d="M3.39435 38.5L16.6057 38.5L19.4205 57.5L0.579532 57.5L3.39435 38.5Z" fill="#2B2B2B" stroke="white"/>
<path d="M3.39435 32.5L16.6057 32.5L19.4205 51.5L0.579532 51.5L3.39435 32.5Z" fill="#2B2B2B" stroke="white"/>
</svg>
