<svg width="20" height="64" viewBox="0 0 20 64" fill="none" xmlns="http://www.w3.org/2000/svg">
<path d="M4.78 11.48C4.72 11.16 4.7 10.84 4.7 10.5C4.7 8.22 6.06 5.7 9.92 5.7C12.86 5.7 14.8 7.54 14.8 10.22C14.8 15.06 9.22 15.08 7.9 17.6H14.84V20H4.82V18.76C4.82 13.06 12.26 13.88 12.26 10.32C12.26 8.92 11.32 8.1 9.9 8.1C7.98 8.1 7.38 9.42 7.38 10.64C7.38 11 7.44 11.34 7.52 11.64L4.78 11.48Z" fill="white"/>
<path d="M3.39435 44.5L16.6057 44.5L19.4205 63.5L0.579532 63.5L3.39435 44.5Z" fill="white" stroke="#2B2B2B"/>
<path d="M3.39435 38.5L16.6057 38.5L19.4205 57.5L0.579532 57.5L3.39435 38.5Z" fill="white" stroke="#2B2B2B"/>
<path d="M3.39435 32.5L16.6057 32.5L19.4205 51.5L0.579532 51.5L3.39435 32.5Z" fill="#2B2B2B" stroke="white"/>
</svg>
