<svg width="20" height="64" viewBox="0 0 20 64" fill="none" xmlns="http://www.w3.org/2000/svg">
<path d="M4.7 15.58L7.34 15.16C7.22 16.7 8 17.9 9.9 17.9C11.64 17.9 12.66 17.02 12.66 15.68C12.66 14.4 11.64 13.68 9.94 13.68H8.66V11.38L9.9 11.36C11.42 11.36 12.1 10.64 12.1 9.74C12.1 8.74 11.34 8.12 9.94 8.12C8.22 8.12 7.7 9.26 7.72 10.18L5.2 9.76C5.22 7.5 6.9 5.7 9.88 5.7C13.08 5.7 14.62 7.44 14.62 9.4C14.62 10.56 14.18 11.58 13.3 12.32C14.6 13.08 15.24 14.28 15.24 15.68C15.24 18.08 13.5 20.3 9.88 20.3C6.42 20.3 4.56 18.12 4.7 15.58Z" fill="white"/>
<path d="M3.39435 44.5L16.6057 44.5L19.4205 63.5L0.579532 63.5L3.39435 44.5Z" fill="white" stroke="#2B2B2B"/>
<path d="M3.39435 38.5L16.6057 38.5L19.4205 57.5L0.579532 57.5L3.39435 38.5Z" fill="white" stroke="#2B2B2B"/>
<path d="M3.39435 32.5L16.6057 32.5L19.4205 51.5L0.579532 51.5L3.39435 32.5Z" fill="white" stroke="#2B2B2B"/>
</svg>
