<svg width="56" height="56" viewBox="0 0 56 56" fill="none" xmlns="http://www.w3.org/2000/svg">
<path d="M28 56C33.5379 56 38.9514 54.3578 43.556 51.2812C48.1605 48.2045 51.7494 43.8315 53.8686 38.7151C55.9879 33.5988 56.5424 27.9689 55.462 22.5375C54.3816 17.106 51.7149 12.1169 47.799 8.20101C43.8831 4.28514 38.894 1.6184 33.4625 0.538013C28.0311 -0.542374 22.4012 0.0121187 17.2849 2.13137C12.1685 4.25062 7.79553 7.83945 4.71885 12.444C1.64217 17.0486 8.36196e-07 22.4621 0 28L11.2 28C11.2 24.6773 12.1853 21.4292 14.0313 18.6664C15.8773 15.9037 18.5011 13.7504 21.5709 12.4788C24.6407 11.2073 28.0186 10.8746 31.2775 11.5228C34.5364 12.171 37.5299 13.7711 39.8794 16.1206C42.2289 18.4701 43.829 21.4636 44.4772 24.7225C45.1254 27.9814 44.7927 31.3593 43.5212 34.4291C42.2496 37.4989 40.0963 40.1227 37.3336 41.9687C34.5708 43.8147 31.3227 44.8 28 44.8L28 56Z" fill="#ED6CEF"/>
</svg>
