<svg width="48" height="48" viewBox="0 0 48 48" fill="none" xmlns="http://www.w3.org/2000/svg">
<g opacity="0.6">
<path d="M40.9706 40.9706C44.327 37.6141 46.6128 33.3377 47.5388 28.6822C48.4649 24.0266 47.9896 19.201 46.1731 14.8156C44.3566 10.4302 41.2805 6.68188 37.3337 4.04473C33.3869 1.40758 28.7468 2.16906e-07 24 0C19.2533 -2.16906e-07 14.6131 1.40758 10.6663 4.04473C6.71954 6.68188 3.6434 10.4302 1.82689 14.8156C0.0103883 19.201 -0.464892 24.0266 0.461153 28.6822C1.3872 33.3377 3.67298 37.6141 7.02944 40.9706L13.8177 34.1823C11.8038 32.1685 10.4323 29.6026 9.87669 26.8093C9.32106 24.016 9.60623 21.1206 10.6961 18.4894C11.786 15.8581 13.6317 13.6091 15.9998 12.0268C18.3679 10.4445 21.1519 9.6 24 9.6C26.8481 9.6 29.6321 10.4445 32.0002 12.0268C34.3683 13.6091 36.214 15.8581 37.3039 18.4894C38.3938 21.1206 38.6789 24.016 38.1233 26.8093C37.5677 29.6026 36.1962 32.1685 34.1823 34.1823L40.9706 40.9706Z" fill="#ED6CEF"/>
</g>
</svg>
