<svg width="56" height="56" viewBox="0 0 56 56" fill="none" xmlns="http://www.w3.org/2000/svg">
<path d="M47.799 47.799C51.7149 43.8831 54.3816 38.894 55.462 33.4625C56.5424 28.0311 55.9879 22.4012 53.8686 17.2849C51.7494 12.1685 48.1605 7.79553 43.556 4.71885C38.9514 1.64217 33.5379 2.53056e-07 28 0C22.4621 -2.53056e-07 17.0486 1.64217 12.444 4.71885C7.83946 7.79553 4.25063 12.1685 2.13137 17.2849C0.0121197 22.4012 -0.542374 28.0311 0.538012 33.4625C1.6184 38.894 4.28514 43.8831 8.20101 47.799L16.1206 39.8794C13.7711 37.5299 12.171 34.5364 11.5228 31.2775C10.8746 28.0186 11.2073 24.6407 12.4788 21.5709C13.7504 18.5011 15.9037 15.8773 18.6664 14.0313C21.4292 12.1853 24.6773 11.2 28 11.2C31.3227 11.2 34.5708 12.1853 37.3336 14.0313C40.0963 15.8773 42.2496 18.5011 43.5212 21.5709C44.7927 24.6407 45.1254 28.0186 44.4772 31.2775C43.829 34.5364 42.2289 37.5299 39.8794 39.8794L47.799 47.799Z" fill="#ED6CEF"/>
</svg>
