<svg width="56" height="56" viewBox="0 0 56 56" fill="none" xmlns="http://www.w3.org/2000/svg">
<path d="M8.20101 8.20101C4.28514 12.1169 1.6184 17.106 0.538012 22.5375C-0.542374 27.9689 0.0121193 33.5988 2.13137 38.7151C4.25063 43.8315 7.83946 48.2045 12.444 51.2812C17.0486 54.3578 22.4621 56 28 56C33.5379 56 38.9514 54.3578 43.556 51.2811C48.1606 48.2045 51.7494 43.8315 53.8686 38.7151C55.9879 33.5988 56.5424 27.9689 55.462 22.5375C54.3816 17.106 51.7148 12.1169 47.799 8.20099L39.8794 16.1206C42.2289 18.4701 43.829 21.4636 44.4772 24.7225C45.1254 27.9814 44.7927 31.3593 43.5212 34.4291C42.2496 37.4989 40.0963 40.1227 37.3336 41.9687C34.5708 43.8147 31.3227 44.8 28 44.8C24.6773 44.8 21.4292 43.8147 18.6664 41.9687C15.9037 40.1227 13.7504 37.4989 12.4788 34.4291C11.2073 31.3593 10.8746 27.9814 11.5228 24.7225C12.171 21.4636 13.7711 18.4701 16.1206 16.1206L8.20101 8.20101Z" fill="#ED6CEF"/>
</svg>
