<svg width="48" height="48" viewBox="0 0 48 48" fill="none" xmlns="http://www.w3.org/2000/svg">
<g opacity="0.6">
<path d="M7.02944 7.02943C3.67298 10.3859 1.3872 14.6623 0.461154 19.3178C-0.464892 23.9734 0.010388 28.799 1.82689 33.1844C3.6434 37.5698 6.71954 41.3181 10.6663 43.9553C14.6131 46.5924 19.2533 48 24 48C28.7468 48 33.3869 46.5924 37.3337 43.9553C41.2805 41.3181 44.3566 37.5698 46.1731 33.1844C47.9896 28.799 48.4649 23.9734 47.5388 19.3178C46.6128 14.6623 44.327 10.3859 40.9706 7.02942L34.1823 13.8177C36.1962 15.8315 37.5677 18.3974 38.1233 21.1907C38.6789 23.984 38.3938 26.8794 37.3039 29.5106C36.214 32.1419 34.3683 34.3909 32.0002 35.9732C29.6321 37.5555 26.8481 38.4 24 38.4C21.152 38.4 18.3679 37.5555 15.9998 35.9732C13.6317 34.3909 11.786 32.1419 10.6961 29.5106C9.60623 26.8794 9.32106 23.984 9.87669 21.1907C10.4323 18.3974 11.8038 15.8315 13.8177 13.8177L7.02944 7.02943Z" fill="#ED6CEF"/>
</g>
</svg>
