<svg width="56" height="56" viewBox="0 0 56 56" fill="none" xmlns="http://www.w3.org/2000/svg">
<path d="M0 28C-4.84136e-07 33.5379 1.64217 38.9514 4.71885 43.556C7.79553 48.1605 12.1685 51.7494 17.2849 53.8686C22.4012 55.9879 28.0311 56.5424 33.4625 55.462C38.894 54.3816 43.8831 51.7149 47.799 47.799C51.7149 43.8831 54.3816 38.894 55.462 33.4625C56.5424 28.0311 55.9879 22.4012 53.8686 17.2849C51.7494 12.1685 48.1605 7.79553 43.556 4.71885C38.9514 1.64217 33.5379 4.18098e-07 28 0V11.2C31.3227 11.2 34.5708 12.1853 37.3336 14.0313C40.0963 15.8773 42.2496 18.5011 43.5212 21.5709C44.7927 24.6407 45.1254 28.0186 44.4772 31.2775C43.829 34.5364 42.2289 37.5299 39.8794 39.8794C37.5299 42.2289 34.5364 43.829 31.2775 44.4772C28.0186 45.1254 24.6407 44.7927 21.5709 43.5212C18.5011 42.2496 15.8773 40.0963 14.0313 37.3336C12.1853 34.5708 11.2 31.3227 11.2 28H0Z" fill="#ED6CEF"/>
</svg>
