<svg width="48" height="48" viewBox="0 0 48 48" fill="none" xmlns="http://www.w3.org/2000/svg">
<g opacity="0.6">
<path d="M24 48C28.7467 48 33.3869 46.5924 37.3337 43.9553C41.2805 41.3181 44.3566 37.5698 46.1731 33.1844C47.9896 28.799 48.4649 23.9734 47.5388 19.3178C46.6128 14.6623 44.327 10.3859 40.9706 7.02944C37.6141 3.67298 33.3377 1.3872 28.6822 0.461154C24.0266 -0.464892 19.201 0.0103875 14.8156 1.82689C10.4302 3.64339 6.68189 6.71953 4.04473 10.6663C1.40758 14.6131 7.1674e-07 19.2532 0 24L9.6 24C9.6 21.1519 10.4445 18.3679 12.0268 15.9998C13.6091 13.6317 15.8581 11.786 18.4894 10.6961C21.1206 9.60623 24.016 9.32106 26.8093 9.87669C29.6026 10.4323 32.1685 11.8038 34.1823 13.8177C36.1962 15.8315 37.5677 18.3974 38.1233 21.1907C38.6789 23.984 38.3938 26.8794 37.3039 29.5106C36.214 32.1419 34.3683 34.3909 32.0002 35.9732C29.6321 37.5555 26.8481 38.4 24 38.4L24 48Z" fill="#ED6CEF"/>
</g>
</svg>
