<svg width="48" height="48" viewBox="0 0 48 48" fill="none" xmlns="http://www.w3.org/2000/svg">
<g opacity="0.6">
<path d="M0 24C-4.14974e-07 28.7467 1.40757 33.3869 4.04473 37.3337C6.68188 41.2805 10.4302 44.3566 14.8156 46.1731C19.201 47.9896 24.0266 48.4649 28.6822 47.5388C33.3377 46.6128 37.6141 44.327 40.9706 40.9706C44.327 37.6141 46.6128 33.3377 47.5388 28.6822C48.4649 24.0266 47.9896 19.201 46.1731 14.8156C44.3566 10.4302 41.2805 6.68188 37.3337 4.04473C33.3869 1.40758 28.7468 3.5837e-07 24 0V9.6C26.8481 9.6 29.6321 10.4445 32.0002 12.0268C34.3683 13.6091 36.214 15.8581 37.3039 18.4894C38.3938 21.1206 38.6789 24.016 38.1233 26.8093C37.5677 29.6026 36.1962 32.1685 34.1823 34.1823C32.1685 36.1962 29.6026 37.5677 26.8093 38.1233C24.016 38.6789 21.1206 38.3938 18.4894 37.3039C15.8581 36.214 13.6091 34.3683 12.0268 32.0002C10.4445 29.6321 9.6 26.848 9.6 24H0Z" fill="#ED6CEF"/>
</g>
</svg>
